<svg xmlns="http://www.w3.org/2000/svg" xml:space="preserve" width="1500" height="1500"
  viewBox="250 309.821 1000 880.358">
  <path fill="transparent" stroke="transparent" d="M0 0h1500v1500H0z" />
  <g data-padding="20">
    <path fill="#cf8040"
      d="M910.497 783.417a176.7 176.7 0 0 1 74.384 14.941 200.8 200.8 0 0 0 86.433 17.19 200.8 200.8 0 0 0 86.272-17.19 176.7 176.7 0 0 1 74.385-14.941v-32.132a200.8 200.8 0 0 0-86.273 17.19 176.7 176.7 0 0 1-74.384 14.942 176.7 176.7 0 0 1-74.385-14.941 200.8 200.8 0 0 0-86.432-17.19 200.8 200.8 0 0 0-86.275 17.19 176.7 176.7 0 0 1-41.929 12.53 176.7 176.7 0 0 1-31.971-85.95h79.524c115.353 0 208.854-93.502 208.854-208.854a16.066 16.066 0 0 0-16.065-16.066H878.043a208.85 208.85 0 0 0-176.722 98V534.4c0-115.353-93.501-208.854-208.854-208.854A16.066 16.066 0 0 0 476.4 341.61v144.592a208.85 208.85 0 0 0 144.751 198.732 579 579 0 0 0 4.822 69.084 241 241 0 0 0-36.791-2.733 200.8 200.8 0 0 0-86.274 17.19 176.7 176.7 0 0 1-74.223 14.942 176.7 176.7 0 0 1-74.384-14.941 200.8 200.8 0 0 0-86.273-17.19v32.13a176.7 176.7 0 0 1 74.385 14.942 200.8 200.8 0 0 0 86.272 17.19 200.8 200.8 0 0 0 86.273-17.19 176.7 176.7 0 0 1 74.384-14.941 193 193 0 0 1 41.77 4.177 575.13 575.13 0 0 0 253.517 375.937l16.87 10.924 17.512-26.99-16.87-10.925a543 543 0 0 1-235.363-336.896 192.9 192.9 0 0 0 83.06 15.906q9.799 0 18.154-.642a208.85 208.85 0 0 0 158.247 72.938h305.249v-32.132H926.24a176.72 176.72 0 0 1-119.688-47.073 274 274 0 0 0 29.72-10.281 176.7 176.7 0 0 1 74.225-14.941m-32.454-281.152h127.884a176.723 176.723 0 0 1-176.08 160.657H702.124a176.723 176.723 0 0 1 175.918-160.657m-369.51-16.065V358.478a176.723 176.723 0 0 1 160.656 175.92v127.884a176.723 176.723 0 0 1-160.656-176.08m167.083 282.274-15.744-6.105a546 546 0 0 1-6.268-70.048 208.4 208.4 0 0 0 31.651 2.733h32.936a208.9 208.9 0 0 0 27.31 88.36 176.7 176.7 0 0 1-69.885-14.94" />
    <path fill="transparent" stroke="transparent" stroke-width="1.786" d="M250 309.821h1000v880.358H250z" />
  </g>
</svg>